Coordinates
version=1
nRows=32
nColumns=22
inDegrees=yes

Units are S.I. units (second, meters, Newtons, ...)
If the header above contains a line with 'inDegrees', this indicates whether rotational values are in degrees (yes) or radians (no).

endheader
time	pelvis_tilt	pelvis_list	pelvis_rotation	pelvis_tx	pelvis_ty	pelvis_tz	hip_flexion_r	hip_adduction_r	hip_rotation_r	knee_angle_r	ankle_angle_r	subtalar_angle_r	hip_flexion_l	hip_adduction_l	hip_rotation_l	knee_angle_l	ankle_angle_l	subtalar_angle_l	lumbar_extension	lumbar_bending	lumbar_rotation
      0.01000000	     -7.10608592	      4.74785092	    -41.21783617	     -1.61880646	      0.88446894	     -0.42992642	      8.36312823	     -4.43571109	      0.41371998	     -8.22024554	     13.05219601	      4.43100671	      5.31543225	     -4.62494881	     -8.81142040	     -8.30808116	     13.97150406	      4.92286878	      3.40958393	     -2.04726645	     11.65010822
      0.02000000	     -7.10865996	      4.75154177	    -41.22646096	     -1.61862820	      0.88444150	     -0.42983449	      8.35290800	     -4.44019934	      0.39573605	     -8.21447558	     13.06843064	      4.43359945	      5.29351520	     -4.61977451	     -8.79675328	     -8.29285665	     13.96576241	      4.93563892	      3.41520191	     -2.05073615	     11.71178407
      0.03000000	     -7.10909898	      4.75376043	    -41.23989720	     -1.61842485	      0.88441236	     -0.42971494	      8.33145705	     -4.44476899	      0.38380750	     -8.19618481	     13.08525949	      4.43799496	      5.26072670	     -4.61448299	     -8.79317015	     -8.26782284	     13.97057770	      4.95413845	      3.41807140	     -2.05549057	     11.78313720
      0.04000000	     -7.11014244	      4.75457043	    -41.25525649	     -1.61822160	      0.88438359	     -0.42958970	      8.30654577	     -4.44680115	      0.37583798	     -8.17182584	     13.09869801	      4.44313840	      5.22723046	     -4.61088333	     -8.79508994	     -8.24259037	     13.97799936	      4.97327405	      3.41663575	     -2.05718260	     11.85796237
      0.05000000	     -7.08481368	      4.73529854	    -41.30598323	     -1.61803127	      0.88440651	     -0.42939745	      8.24436205	     -4.44516053	      0.42553328	     -8.13869475	     13.10230622	      4.46388864	      5.12591381	     -4.60677693	     -8.83954667	     -8.16862248	     13.98266471	      5.03602445	      3.37822992	     -2.05788401	     11.95157453
      0.06000000	     -7.09519154	      4.74047589	    -41.31021830	     -1.61786832	      0.88436621	     -0.42929153	      8.23051582	     -4.44421025	      0.40156386	     -8.11326624	     13.11112455	      4.46596813	      5.12275626	     -4.61039723	     -8.83366189	     -8.17142168	     13.98347316	      5.04294893	      3.37952141	     -2.05924236	     12.01338750
      0.07000000	     -7.11064051	      4.74635115	    -41.32335359	     -1.61773036	      0.88431874	     -0.42917329	      8.22272850	     -4.43784327	      0.38619982	     -8.08599014	     13.11913942	      4.46943675	      5.11546616	     -4.61793893	     -8.83567515	     -8.15851709	     13.99511104	      5.04994478	      3.38381393	     -2.05506555	     12.08097418
      0.08000000	     -7.12835265	      4.75129564	    -41.34324344	     -1.61762801	      0.88427043	     -0.42904711	      8.22075996	     -4.42626213	      0.38199698	     -8.06309033	     13.12434777	      4.47402396	      5.10871976	     -4.63032156	     -8.84207848	     -8.14519195	     14.00778825	      5.05655975	      3.38593075	     -2.04760816	     12.15497424
      0.09000000	     -7.15215451	      4.75078388	    -41.38799889	     -1.61758696	      0.88421860	     -0.42888614	      8.23342061	     -4.39900883	      0.43108647	     -8.05594385	     13.11841299	      4.48556104	      5.09374270	     -4.65688809	     -8.88868273	     -8.11955353	     14.02991617	      5.07309833	      3.38597123	     -2.02829863	     12.24623517
      0.10000000	     -7.16417397	      4.75937231	    -41.40192064	     -1.61752021	      0.88417233	     -0.42877653	      8.23684651	     -4.39391733	      0.42164217	     -8.04458443	     13.12587199	      4.48624485	      5.09619837	     -4.66477477	     -8.88340483	     -8.12372437	     14.03246346	      5.07818091	      3.37795858	     -2.02482987	     12.31184417
      0.11000000	     -7.18101076	      4.76584699	    -41.42056926	     -1.61746873	      0.88411649	     -0.42864265	      8.25205296	     -4.38017679	      0.42697443	     -8.05108319	     13.13633371	      4.48492627	      5.08984412	     -4.67930188	     -8.88258268	     -8.10889656	     14.04689257	      5.08529735	      3.37120045	     -2.01507704	     12.39731893
      0.12000000	     -7.19879939	      4.77359015	    -41.47508135	     -1.61746931	      0.88404948	     -0.42845373	      8.29845528	     -4.35757263	      0.49468451	     -8.10385223	     13.16485237	      4.46763207	      5.06598443	     -4.69849639	     -8.92806303	     -8.06858226	     14.07130562	      5.10945048	      3.36317536	     -1.99798993	     12.49542318
      0.13000000	     -7.20878799	      4.78381716	    -41.50817378	     -1.61744621	      0.88398318	     -0.42827638	      8.33682112	     -4.34459420	      0.53042245	     -8.15595638	     13.19844453	      4.43667223	      5.04532880	     -4.70880386	     -8.93662661	     -8.03697449	     14.09660623	      5.13474594	      3.34651659	     -1.99042296	     12.58928672
      0.14000000	     -7.21904606	      4.79166083	    -41.54194186	     -1.61741971	      0.88390915	     -0.42808331	      8.38479607	     -4.32744075	      0.57146049	     -8.23079494	     13.24375531	      4.39522026	      5.01618638	     -4.72187689	     -8.94271613	     -7.99118112	     14.13116173	      5.15961827	      3.32464752	     -1.97399639	     12.67448085
      0.15000000	     -7.23147690	      4.79888561	    -41.58033647	     -1.61739278	      0.88382472	     -0.42786860	      8.44656998	     -4.30565201	      0.62028266	     -8.32829476	     13.30107108	      4.34180946	      4.98230247	     -4.73753934	     -8.95103412	     -7.93472620	     14.17801469	      5.18686795	      3.30086729	     -1.95067066	     12.75922737
      0.16000000	     -7.24918278	      4.80785176	    -41.62408765	     -1.61738994	      0.88372434	     -0.42762304	      8.52571600	     -4.27713778	      0.67817272	     -8.44509429	     13.36980673	      4.27041468	      4.95122458	     -4.75930362	     -8.96591863	     -7.87277311	     14.23441827	      5.22078051	      3.27721108	     -1.92416303	     12.84855335
      0.17000000	     -7.27423415	      4.81597487	    -41.66970333	     -1.61740745	      0.88361359	     -0.42735555	      8.61935844	     -4.23928111	      0.74259486	     -8.57725818	     13.43658591	      4.19194546	      4.92404598	     -4.78912293	     -8.97361310	     -7.80721543	     14.30318062	      5.25864786	      3.25318311	     -1.88977625	     12.93730689
      0.18000000	     -7.31258346	      4.84806412	    -41.72606179	     -1.61749270	      0.88346542	     -0.42707072	      8.75936691	     -4.20394023	      0.85021189	     -8.73550482	     13.49406399	      4.01303096	      4.93817236	     -4.81560088	     -9.01623114	     -7.76665812	     14.37755128	      5.35083132	      3.24918362	     -1.86470578	     13.01394859
      0.19000000	     -7.36137938	      4.85622561	    -41.77362438	     -1.61754460	      0.88332824	     -0.42672972	      8.87690287	     -4.14180488	      0.92210802	     -8.87944602	     13.56614682	      3.92063098	      4.92312351	     -4.86794701	     -9.04815106	     -7.69083413	     14.44704363	      5.40289727	      3.23807005	     -1.80824104	     13.06957798
      0.20000000	     -7.41227215	      4.86150670	    -41.81345705	     -1.61760907	      0.88319803	     -0.42636025	      8.98519785	     -4.07486378	      0.98279068	     -9.01097393	     13.61337615	      3.86700107	      4.90039096	     -4.92416642	     -9.03810904	     -7.60118294	     14.51840593	      5.43717093	      3.22194090	     -1.75141151	     13.13314017
      0.21000000	     -7.49660393	      4.90968213	    -41.87142314	     -1.61775814	      0.88299046	     -0.42593896	      9.16524038	     -4.00902343	      1.09226472	     -9.16161946	     13.67713678	      3.70495988	      4.95564560	     -4.98105746	     -9.12641601	     -7.55633031	     14.58169923	      5.53840896	      3.26377586	     -1.70429423	     13.18402045
      0.22000000	     -7.56380798	      4.91978920	    -41.90148791	     -1.61785112	      0.88285147	     -0.42548998	      9.27323286	     -3.92986084	      1.14226875	     -9.27193368	     13.71128497	      3.64813444	      4.94298983	     -5.04814596	     -9.11514196	     -7.45716444	     14.63778482	      5.57577020	      3.26089178	     -1.63810544	     13.21471541
      0.23000000	     -7.67257811	      4.97777202	    -41.94397130	     -1.61802763	      0.88262083	     -0.42499613	      9.45650160	     -3.85037770	      1.23458755	     -9.38936529	     13.75082395	      3.46586603	      5.02867301	     -5.11795078	     -9.19635559	     -7.42034406	     14.69489777	      5.68571927	      3.32796243	     -1.58069831	     13.23141338
      0.24000000	     -7.76443808	      5.01085755	    -41.96689406	     -1.61816170	      0.88244593	     -0.42446480	      9.58338244	     -3.76593707	      1.28993940	     -9.47364239	     13.78040111	      3.33804014	      5.06739994	     -5.19088980	     -9.23336234	     -7.35367704	     14.72841824	      5.75780096	      3.36214176	     -1.51444873	     13.22449954
      0.25000000	     -7.83074548	      5.03123294	    -41.98353681	     -1.61825821	      0.88232153	     -0.42387577	      9.65906484	     -3.69112931	      1.32434285	     -9.52857626	     13.81309343	      3.29606448	      5.06009164	     -5.25218518	     -9.25094811	     -7.26228573	     14.74130443	      5.77876615	      3.36767846	     -1.45665542	     13.20185565
      0.26000000	     -7.91162427	      5.06366644	    -41.99901242	     -1.61838151	      0.88218713	     -0.42325145	      9.75032405	     -3.61200477	      1.36542753	     -9.57584550	     13.84056085	      3.21813108	      5.08835964	     -5.31833082	     -9.29209632	     -7.20455553	     14.72753347	      5.81464174	      3.39269996	     -1.39632487	     13.16557818
      0.27000000	     -7.94676839	      5.10345036	    -41.99808456	     -1.61844985	      0.88210683	     -0.42260513	      9.78447257	     -3.57767243	      1.38563133	     -9.58585076	     13.85002873	      3.19349156	      5.09163390	     -5.34178037	     -9.33653705	     -7.16296387	     14.71676036	      5.82403512	      3.38443175	     -1.37628247	     13.08508397
      0.28000000	     -8.06893937	      5.16750228	    -41.98299027	     -1.61859996	      0.88192280	     -0.42194951	      9.91686897	     -3.49202049	      1.40306611	     -9.61622702	     13.85512407	      2.95814131	      5.21115365	     -5.41741965	     -9.35477614	     -7.17204492	     14.68022393	      5.92587904	      3.46386448	     -1.31234648	     13.01903046
      0.29000000	     -8.09806036	      5.20374382	    -41.98067446	     -1.61866770	      0.88187400	     -0.42119655	      9.92415070	     -3.45483723	      1.40852214	     -9.60167812	     13.88395264	      2.94305724	      5.21218732	     -5.44498922	     -9.39988005	     -7.15530348	     14.62604049	      5.92813362	      3.44915478	     -1.29388357	     12.93462642
      0.30000000	     -8.13997555	      5.23770780	    -41.96762123	     -1.61873967	      0.88181957	     -0.42042004	      9.92927479	     -3.40584917	      1.40421723	     -9.57329882	     13.91229930	      2.91641768	      5.22883152	     -5.48518064	     -9.43539747	     -7.14730082	     14.54542192	      5.93257196	      3.44089680	     -1.26271925	     12.84451333
      0.31000000	     -8.23453612	      5.26580572	    -41.90371084	     -1.61881529	      0.88171537	     -0.41968211	      9.95061237	     -3.31857799	      1.34349629	     -9.51390212	     13.88625655	      2.74437677	      5.31673260	     -5.57025647	     -9.38934799	     -7.17937512	     14.48937476	      5.97271796	      3.46605853	     -1.18862146	     12.71403631
      0.32000000	     -8.27982530	      5.29735169	    -41.88845858	     -1.61892514	      0.88165048	     -0.41884127	      9.94433596	     -3.26078165	      1.33418295	     -9.46596063	     13.92215219	      2.69143303	      5.35691212	     -5.62319029	     -9.42360872	     -7.20903322	     14.41715628	      5.97540510	      3.45332675	     -1.15341917	     12.63275612
